<?xml version="1.0" encoding="utf-8"?>
<!-- Generator: Adobe Illustrator 26.3.1, SVG Export Plug-In . SVG Version: 6.00 Build 0)  -->
<svg version="1.1" id="Layer_1" xmlns="http://www.w3.org/2000/svg" xmlns:xlink="http://www.w3.org/1999/xlink" x="0px" y="0px"
	 viewBox="0 0 135.1 44" style="enable-background:new 0 0 135.1 44;" xml:space="preserve">
<style type="text/css">
	.st0{fill-rule:evenodd;clip-rule:evenodd;fill:#FFFFFF;}
	.st1{fill:#3F8ECC;}
	.st2{fill:#3C3C3B;}
	.st3{fill-rule:evenodd;clip-rule:evenodd;fill:#3F8ECC;}
</style>
<path class="st0" d="M-2814.1-1348.8"/>
<image style="overflow:visible;enable-background:new    ;" width="1366" height="728" xlink:href="B7DAEB25.jpeg"  transform="matrix(1 0 0 1 -11797.5742 -8651.8223)">
</image>
<g>
	<path class="st1" d="M-266.6-156.6c1.5,2,2.3,4.2,2.3,6.8c0,3.7-1.3,6.6-3.8,8.7c-2.6,2.1-6.1,3.2-10.7,3.2h-20.4v-43.9h19.7
		c4.5,0,7.9,1,10.5,3.1c2.5,2,3.8,4.8,3.8,8.3c0,2.6-0.7,4.7-2,6.4c-1.4,1.7-3.2,2.9-5.4,3.6C-270.1-159.9-268.1-158.6-266.6-156.6z
		 M-288.6-164h7c1.7,0,3.1-0.4,4-1.2c0.9-0.8,1.4-1.9,1.4-3.4c0-1.5-0.5-2.6-1.4-3.4c-0.9-0.8-2.3-1.2-4-1.2h-7V-164z M-276.5-147.7
		c1-0.8,1.5-2,1.5-3.5c0-1.5-0.5-2.7-1.5-3.6c-1-0.9-2.4-1.3-4.2-1.3h-7.7v9.7h7.9C-278.9-146.5-277.5-146.9-276.5-147.7z"/>
	<path class="st1" d="M-242.7-171.5c1.9-1.1,4-1.7,6.2-1.7v11.3h-2.9c-2.7,0-4.7,0.6-6,1.7c-1.3,1.1-2,3.2-2,6v16.2h-10.7v-34.9
		h10.7v5.8C-246.1-168.9-244.6-170.4-242.7-171.5z"/>
	<path class="st1" d="M-196.9-172.8v34.9h-10.7v-4.7c-1.1,1.5-2.6,2.8-4.4,3.7c-1.9,0.9-3.9,1.4-6.2,1.4c-2.7,0-5-0.6-7.1-1.8
		c-2-1.2-3.6-2.9-4.7-5.2c-1.1-2.2-1.7-4.9-1.7-7.9v-20.4h10.6v18.9c0,2.3,0.6,4.1,1.8,5.4c1.2,1.3,2.8,1.9,4.9,1.9
		c2.1,0,3.7-0.6,4.9-1.9c1.2-1.3,1.8-3.1,1.8-5.4v-18.9H-196.9z"/>
	<path class="st1" d="M-178.5-133.4c0,4.3-1.1,7.4-3.2,9.3c-2.2,1.9-5.2,2.8-9.1,2.8h-4.2v-9.1h2.6c1.2,0,2-0.2,2.5-0.7
		c0.5-0.5,0.7-1.2,0.7-2.2v-39.5h10.7V-133.4z M-188.5-178.1c-1.2-1.1-1.8-2.5-1.8-4.1c0-1.7,0.6-3.1,1.8-4.2
		c1.2-1.1,2.7-1.7,4.6-1.7c1.8,0,3.3,0.6,4.5,1.7c1.2,1.1,1.8,2.5,1.8,4.2c0,1.6-0.6,3-1.8,4.1c-1.2,1.1-2.7,1.7-4.5,1.7
		C-185.8-176.4-187.3-176.9-188.5-178.1z"/>
	<path class="st1" d="M-136.4-172.8v34.9h-10.7v-4.7c-1.1,1.5-2.6,2.8-4.4,3.7c-1.9,0.9-3.9,1.4-6.2,1.4c-2.7,0-5-0.6-7.1-1.8
		c-2-1.2-3.6-2.9-4.7-5.2c-1.1-2.2-1.7-4.9-1.7-7.9v-20.4h10.6v18.9c0,2.3,0.6,4.1,1.8,5.4c1.2,1.3,2.8,1.9,4.9,1.9
		c2.1,0,3.7-0.6,4.9-1.9c1.2-1.3,1.8-3.1,1.8-5.4v-18.9H-136.4z"/>
	<path class="st1" d="M-118-184.1v46.2h-10.7v-46.2H-118z"/>
	<path class="st1" d="M-110.4-164.8c1.4-2.7,3.2-4.8,5.5-6.2c2.3-1.5,4.9-2.2,7.8-2.2c2.5,0,4.6,0.5,6.5,1.5c1.9,1,3.3,2.3,4.3,3.9
		v-4.9h10.7v34.9h-10.7v-4.9c-1,1.6-2.5,2.9-4.3,3.9c-1.9,1-4,1.5-6.5,1.5c-2.8,0-5.4-0.7-7.7-2.2c-2.3-1.5-4.2-3.6-5.5-6.3
		c-1.4-2.7-2-5.9-2-9.5C-112.4-159-111.7-162.1-110.4-164.8z M-88.5-161.6c-1.5-1.5-3.3-2.3-5.4-2.3c-2.1,0-3.9,0.8-5.4,2.3
		c-1.5,1.5-2.2,3.6-2.2,6.3c0,2.7,0.7,4.8,2.2,6.3c1.5,1.6,3.3,2.3,5.4,2.3c2.1,0,3.9-0.8,5.4-2.3c1.5-1.5,2.2-3.6,2.2-6.3
		C-86.3-158-87-160.1-88.5-161.6z"/>
	<g>
		<g>
			<path class="st2" d="M-145.7-116c-1.2,1.2-3.1,1.8-5.6,1.8h-4.1v9h-2.8v-21.6h7c2.4,0,4.3,0.6,5.6,1.8c1.3,1.2,1.9,2.7,1.9,4.5
				C-143.8-118.7-144.4-117.2-145.7-116z M-147.8-117.6c0.7-0.7,1.1-1.6,1.1-2.9c0-2.7-1.5-4-4.6-4h-4.1v7.9h4.1
				C-149.7-116.5-148.6-116.9-147.8-117.6z"/>
			<path class="st2" d="M-125.7-122.2l-10.2,24.9h-2.9l3.3-8.2l-6.8-16.8h3.1l5.3,13.7l5.3-13.7H-125.7z"/>
			<path class="st2" d="M-99-121.7c1,0.5,1.8,1.4,2.4,2.5c0.6,1.1,0.9,2.4,0.9,4v10h-2.8v-9.6c0-1.7-0.4-3-1.3-3.9
				c-0.8-0.9-2-1.3-3.4-1.3c-1.5,0-2.6,0.5-3.5,1.4c-0.9,0.9-1.3,2.3-1.3,4.1v9.3h-2.8v-9.6c0-1.7-0.4-3-1.3-3.9
				c-0.8-0.9-2-1.3-3.4-1.3c-1.5,0-2.6,0.5-3.5,1.4c-0.9,0.9-1.3,2.3-1.3,4.1v9.3h-2.8v-17h2.8v2.4c0.6-0.9,1.3-1.6,2.2-2
				c0.9-0.5,2-0.7,3.1-0.7c1.4,0,2.7,0.3,3.8,1c1.1,0.6,1.9,1.6,2.4,2.8c0.5-1.2,1.3-2.1,2.4-2.8c1.1-0.7,2.3-1,3.7-1
				C-101.2-122.5-100-122.2-99-121.7z"/>
			<path class="st2" d="M-75.7-112.6h-13.5c0.1,1.7,0.7,3,1.7,3.9c1,0.9,2.3,1.4,3.8,1.4c1.2,0,2.2-0.3,3-0.9
				c0.8-0.6,1.4-1.3,1.7-2.3h3c-0.5,1.6-1.4,3-2.7,4s-3.1,1.5-5.1,1.5c-1.6,0-3-0.4-4.3-1.1c-1.3-0.7-2.3-1.7-3-3.1
				c-0.7-1.3-1.1-2.9-1.1-4.6c0-1.8,0.4-3.3,1.1-4.6c0.7-1.3,1.7-2.3,3-3c1.3-0.7,2.7-1.1,4.4-1.1c1.6,0,3,0.4,4.3,1.1
				c1.2,0.7,2.2,1.7,2.9,2.9c0.7,1.2,1,2.6,1,4.2C-75.6-113.8-75.6-113.2-75.7-112.6z M-79.2-117.7c-0.5-0.8-1.1-1.4-1.9-1.8
				c-0.8-0.4-1.7-0.6-2.7-0.6c-1.4,0-2.6,0.5-3.6,1.4c-1,0.9-1.6,2.2-1.7,3.8h10.7C-78.5-116-78.7-116.9-79.2-117.7z"/>
		</g>
	</g>
	<path class="st3" d="M-201.9-185l-21.5-3.1c-0.6-0.1-0.7,0.1-0.4,0.7l3.2,5c0.4,0.5,0.7,0.6,1.3,0.6l9.5-0.9c1-0.1,0.7,0.2,0.1,0.4
		l-8.6,2.5c-0.5,0.2-0.4,0.3-0.2,0.6l2.9,4.7c0.2,0.4,0.6,0.4,1,0.1l13-10.1C-201.3-184.7-201.4-184.9-201.9-185z"/>
</g>
<g>
	<path class="st1" d="M31.3,15.6c0.7,0.9,1.1,1.9,1.1,3.1c0,1.7-0.6,3-1.8,4c-1.2,1-2.8,1.5-4.9,1.5h-9.4V4.1h9c2,0,3.6,0.5,4.8,1.4
		c1.2,0.9,1.7,2.2,1.7,3.8c0,1.2-0.3,2.2-0.9,2.9c-0.6,0.8-1.4,1.3-2.5,1.6C29.7,14.1,30.6,14.7,31.3,15.6z M21.3,12.2h3.2
		c0.8,0,1.4-0.2,1.8-0.5c0.4-0.4,0.6-0.9,0.6-1.6c0-0.7-0.2-1.2-0.6-1.6c-0.4-0.4-1-0.5-1.8-0.5h-3.2V12.2z M26.8,19.7
		c0.4-0.4,0.7-0.9,0.7-1.6c0-0.7-0.2-1.3-0.7-1.7c-0.5-0.4-1.1-0.6-1.9-0.6h-3.5v4.4h3.6C25.7,20.2,26.3,20.1,26.8,19.7z"/>
	<path class="st1" d="M42.3,8.8c0.9-0.5,1.8-0.8,2.9-0.8v5.2h-1.3c-1.2,0-2.1,0.3-2.7,0.8c-0.6,0.5-0.9,1.4-0.9,2.8v7.4h-4.9v-16
		h4.9v2.7C40.7,10,41.4,9.3,42.3,8.8z"/>
	<path class="st1" d="M63.2,8.2v16h-4.9V22c-0.5,0.7-1.2,1.3-2,1.7c-0.8,0.4-1.8,0.6-2.8,0.6c-1.2,0-2.3-0.3-3.2-0.8
		c-0.9-0.5-1.7-1.3-2.2-2.4c-0.5-1-0.8-2.2-0.8-3.6V8.2h4.9v8.7c0,1.1,0.3,1.9,0.8,2.5c0.6,0.6,1.3,0.9,2.2,0.9c1,0,1.7-0.3,2.3-0.9
		c0.6-0.6,0.8-1.4,0.8-2.5V8.2H63.2z"/>
	<path class="st1" d="M71.6,26.2c0,2-0.5,3.4-1.5,4.2c-1,0.9-2.4,1.3-4.1,1.3h-1.9v-4.1h1.2c0.5,0,0.9-0.1,1.1-0.3
		c0.2-0.2,0.3-0.6,0.3-1V8.2h4.9V26.2z M67.1,5.8c-0.5-0.5-0.8-1.1-0.8-1.9c0-0.8,0.3-1.4,0.8-1.9c0.5-0.5,1.2-0.8,2.1-0.8
		c0.8,0,1.5,0.3,2.1,0.8c0.5,0.5,0.8,1.1,0.8,1.9c0,0.7-0.3,1.4-0.8,1.9c-0.5,0.5-1.2,0.8-2.1,0.8C68.3,6.6,67.6,6.3,67.1,5.8z"/>
	<path class="st1" d="M90.9,8.2v16H86V22c-0.5,0.7-1.2,1.3-2,1.7c-0.8,0.4-1.8,0.6-2.8,0.6c-1.2,0-2.3-0.3-3.2-0.8
		c-0.9-0.5-1.7-1.3-2.2-2.4c-0.5-1-0.8-2.2-0.8-3.6V8.2h4.9v8.7c0,1.1,0.3,1.9,0.8,2.5c0.6,0.6,1.3,0.9,2.2,0.9c1,0,1.7-0.3,2.3-0.9
		c0.6-0.6,0.8-1.4,0.8-2.5V8.2H90.9z"/>
	<path class="st1" d="M99.3,3v21.2h-4.9V3H99.3z"/>
	<path class="st1" d="M102.8,11.9c0.6-1.2,1.5-2.2,2.5-2.9c1.1-0.7,2.3-1,3.6-1c1.1,0,2.1,0.2,3,0.7c0.8,0.5,1.5,1.1,2,1.8V8.2h4.9
		v16h-4.9v-2.3c-0.5,0.7-1.1,1.3-2,1.8c-0.8,0.5-1.8,0.7-3,0.7c-1.3,0-2.5-0.3-3.5-1c-1.1-0.7-1.9-1.6-2.5-2.9
		c-0.6-1.2-0.9-2.7-0.9-4.3C101.9,14.5,102.2,13.1,102.8,11.9z M112.8,13.3c-0.7-0.7-1.5-1.1-2.5-1.1s-1.8,0.3-2.5,1
		c-0.7,0.7-1,1.7-1,2.9c0,1.2,0.3,2.2,1,2.9c0.7,0.7,1.5,1.1,2.5,1.1s1.8-0.4,2.5-1.1c0.7-0.7,1-1.7,1-2.9
		C113.9,15,113.5,14,112.8,13.3z"/>
	<g>
		<g>
			<path class="st2" d="M86.7,34.2c-0.6,0.5-1.4,0.8-2.6,0.8h-1.9v4.1h-1.3v-9.9h3.2c1.1,0,2,0.3,2.5,0.8c0.6,0.5,0.9,1.2,0.9,2.1
				C87.5,33,87.2,33.7,86.7,34.2z M85.7,33.5c0.3-0.3,0.5-0.8,0.5-1.3c0-1.2-0.7-1.8-2.1-1.8h-1.9V34h1.9
				C84.8,34,85.4,33.8,85.7,33.5z"/>
			<path class="st2" d="M95.8,31.4l-4.7,11.4h-1.3l1.5-3.7l-3.1-7.7h1.4l2.4,6.3l2.4-6.3H95.8z"/>
			<path class="st2" d="M108,31.6c0.5,0.3,0.8,0.6,1.1,1.1c0.3,0.5,0.4,1.1,0.4,1.8v4.6h-1.3v-4.4c0-0.8-0.2-1.4-0.6-1.8
				c-0.4-0.4-0.9-0.6-1.6-0.6c-0.7,0-1.2,0.2-1.6,0.6c-0.4,0.4-0.6,1.1-0.6,1.9v4.3h-1.3v-4.4c0-0.8-0.2-1.4-0.6-1.8
				c-0.4-0.4-0.9-0.6-1.6-0.6c-0.7,0-1.2,0.2-1.6,0.6c-0.4,0.4-0.6,1.1-0.6,1.9v4.3h-1.3v-7.8h1.3v1.1c0.3-0.4,0.6-0.7,1-0.9
				c0.4-0.2,0.9-0.3,1.4-0.3c0.7,0,1.2,0.1,1.7,0.4c0.5,0.3,0.9,0.7,1.1,1.3c0.2-0.5,0.6-1,1.1-1.3c0.5-0.3,1.1-0.5,1.7-0.5
				C107,31.3,107.6,31.4,108,31.6z"/>
			<path class="st2" d="M118.7,35.8h-6.2c0,0.8,0.3,1.4,0.8,1.8c0.5,0.4,1.1,0.6,1.7,0.6c0.6,0,1-0.1,1.4-0.4c0.4-0.3,0.6-0.6,0.8-1
				h1.4c-0.2,0.7-0.6,1.4-1.2,1.8c-0.6,0.5-1.4,0.7-2.3,0.7c-0.7,0-1.4-0.2-2-0.5c-0.6-0.3-1-0.8-1.4-1.4c-0.3-0.6-0.5-1.3-0.5-2.1
				c0-0.8,0.2-1.5,0.5-2.1c0.3-0.6,0.8-1.1,1.4-1.4c0.6-0.3,1.2-0.5,2-0.5c0.7,0,1.4,0.2,2,0.5c0.6,0.3,1,0.8,1.3,1.3
				c0.3,0.6,0.5,1.2,0.5,1.9C118.8,35.2,118.7,35.5,118.7,35.8z M117.1,33.4c-0.2-0.4-0.5-0.6-0.9-0.8c-0.4-0.2-0.8-0.3-1.2-0.3
				c-0.7,0-1.2,0.2-1.7,0.6c-0.5,0.4-0.7,1-0.8,1.7h4.9C117.4,34.2,117.3,33.8,117.1,33.4z"/>
		</g>
	</g>
	<path class="st3" d="M60.9,2.6l-9.9-1.4c-0.3,0-0.3,0.1-0.2,0.3l1.5,2.3c0.2,0.2,0.3,0.3,0.6,0.3l4.3-0.4c0.4-0.1,0.3,0.1,0,0.2
		L53.4,5c-0.2,0.1-0.2,0.2-0.1,0.3l1.3,2.1c0.1,0.2,0.3,0.2,0.5,0L61,2.9C61.2,2.8,61.2,2.7,60.9,2.6z"/>
</g>
</svg>
